:SAMPLES-PER-SECOND 30
:FULLY-SPECIFIED
:DEGREES
685
root  -62.3516 40.474 2.08045 -177.148 -85.5159 178.225
RightUpLeg  -11.0296 -7.58595 -4.97848
RightLeg  4.67809 12.1197 0.260111
RightFoot  3.3587 -0.703694 5.63193
RightToes  -1.33073e-015 0 -3.6325e-017
Spine  16.861 0.517059 9.48916
Spine1  6.52246 4.58454 -11.333
HEad  -27.6477 -11.0356 3.61442
LeftShoulder1  1.52865 -6.82651 -7.19089
LeftArm  -30.2754 -68.1923 -16.8741
LeftForeArm  -18.4428 -11.8987 -4.62207
LeftHand  -0.297707 11.2224 -4.48782
RightShoulder  0.876981 4.94777 2.20188
RightArm  -33.2074 74.786 15.6677
RightForeArm  -32.7466 -5.22022 1.22538
RightHand  -0.0143293 2.43443 -0.411177
LeftUpLeg  -13.7544 3.27737 0.0757295
LeftLeg  7.40825 -8.74534 -0.953351
LeftFoot  5.26133 -0.390264 2.45326
LeftToes  -1.03319e-009 7.52634e-011 -3.26162e-012
686
root  -62.4775 40.5352 1.91306 -173.881 -85.6244 175.176
RightUpLeg  -10.641 -7.66417 -4.96851
RightLeg  3.87587 12.0336 0.155904
RightFoot  3.74155 -0.66108 5.18213
RightToes  -1.33073e-015 0 -3.6325e-017
Spine  16.9187 0.550121 8.97577
Spine1  6.40755 4.4701 -11.062
HEad  -28.1756 -12.1276 4.20895
LeftShoulder1  1.46505 -6.91239 -6.37636
LeftArm  -32.186 -68.6615 -15.2568
LeftForeArm  -17.8097 -10.8094 -4.24474
LeftHand  -0.318549 11.3268 -4.79892
RightShoulder  0.851849 4.92994 1.89706
RightArm  -34.6963 75.41 14.5619
RightForeArm  -31.7858 -5.22969 1.08983
RightHand  -0.0101731 1.7734 -0.322616
LeftUpLeg  -13.3022 3.23359 0.0431302
LeftLeg  6.44023 -8.98739 -0.792831
LeftFoot  5.59895 -0.44744 2.77738
LeftToes  -1.03319e-009 7.52634e-011 -3.26162e-012
687
root  -62.6095 40.5724 1.72652 -171.385 -86.4441 173.103
RightUpLeg  -10.4959 -7.48679 -4.77393
RightLeg  3.37198 10.923 -0.130949
RightFoot  3.86482 -0.627478 4.89553
RightToes  -1.33073e-015 0 -3.6325e-017
Spine  16.6469 0.393875 8.66885
Spine1  6.38751 4.09226 -10.5608
HEad  -28.6552 -12.6908 4.50785
LeftShoulder1  1.43596 -7.22894 -5.5956
LeftArm  -33.9952 -68.9518 -14.8884
LeftForeArm  -16.2937 -9.8826 -3.3066
LeftHand  -0.312363 11.243 -4.75547
RightShoulder  0.849239 4.74308 2.12012
RightArm  -36.6103 76.0417 12.8866
RightForeArm  -31.1366 -5.23443 0.990108
RightHand  -0.0151724 1.50924 -0.392804
LeftUpLeg  -13.1676 2.92564 0.0415945
LeftLeg  5.52986 -9.30382 -0.458177
LeftFoot  5.73888 -0.290272 1.70063
LeftToes  -1.03319e-009 7.52634e-011 -3.26162e-012
688
root  -62.7185 40.6176 1.56343 -169.9 -87.0436 171.64
RightUpLeg  -10.0049 -7.6157 -4.72363
RightLeg  2.97589 10.4197 -0.0155435
RightFoot  4.00105 -0.59865 4.64474
RightToes  -1.33073e-015 0 -3.6325e-017
Spine  17.0101 0.260217 8.62062
Spine1  6.20587 3.86317 -10.1592
HEad  -29.0003 -13.8013 4.59809
LeftShoulder1  1.45915 -7.19855 -5.88451
LeftArm  -35.9481 -69.9647 -13.5864
LeftForeArm  -14.9466 -8.714 -2.74349
LeftHand  -0.355454 11.3853 -5.45534
RightShoulder  0.818693 4.87535 1.51917
RightArm  -37.9342 76.1131 11.2212
RightForeArm  -31.586 -5.23317 1.07053
RightHand  -0.000426807 1.38759 -0.138681
LeftUpLeg  -12.7697 2.88007 0.100819
LeftLeg  4.9339 -9.89631 -0.221826
LeftFoot  5.90951 -0.279094 1.60217
LeftToes  -1.03319e-009 7.52634e-011 -3.26162e-012
689
root  -62.8078 40.6441 1.38233 -166.265 -87.2015 168.226
RightUpLeg  -10.1223 -7.52768 -4.60942
RightLeg  3.12092 10.232 -0.0174973
RightFoot  3.91739 -0.548563 4.293
RightToes  -1.33073e-015 0 -3.6325e-017
Spine  17.0987 0.216066 9.02517
Spine1  6.10397 4.04177 -10.886
HEad  -29.7449 -15.3437 5.30822
LeftShoulder1  1.42067 -7.49919 -5.07774
LeftArm  -37.3486 -70.5694 -12.408
LeftForeArm  -15.312 -7.48482 -2.40405
LeftHand  -0.356176 12.1617 -4.75103
RightShoulder  0.829673 4.99781 1.50798
RightArm  -40.1905 76.0767 9.2527
RightForeArm  -31.2617 -5.18931 0.755187
RightHand  0.00586433 1.54979 -0.0431845
LeftUpLeg  -12.7419 2.93722 0.180512
LeftLeg  4.64551 -10.3462 -0.204181
LeftFoot  6.0099 -0.357142 2.10142
LeftToes  -1.03319e-009 7.52634e-011 -3.26162e-012
690
root  -62.9062 40.6616 1.23524 -160.511 -87.5378 162.586
RightUpLeg  -10.1711 -7.46676 -4.58237
RightLeg  3.43163 9.73827 -0.0690593
RightFoot  3.60848 -0.524471 4.18253
RightToes  -1.33073e-015 0 -3.6325e-017
Spine  17.1208 0.148159 9.37601
Spine1  6.18784 4.13972 -11.366
HEad  -30.5573 -16.6306 5.95743
LeftShoulder1  1.36941 -7.85103 -4.10563
LeftArm  -38.4548 -70.9257 -10.4417
LeftForeArm  -16.0182 -6.60039 -2.60096
LeftHand  -0.346077 11.7804 -4.89838
RightShoulder  0.821493 4.74687 1.73095
RightArm  -42.4797 76.3759 6.86413
RightForeArm  -31.3384 -5.1778 0.70428
RightHand  0.00415796 1.3803 -0.0571655
LeftUpLeg  -12.5678 2.89926 0.16739
LeftLeg  4.29991 -10.6953 -0.143461
LeftFoot  6.05845 -0.321053 1.85749
LeftToes  -1.03319e-009 7.52634e-011 -3.26162e-012
691
root  -62.9924 40.6612 1.09691 -152.193 -88.058 154.443
RightUpLeg  -10.3679 -7.31695 -4.46771
RightLeg  3.93561 9.03883 -0.186982
RightFoot  3.30483 -0.483425 3.93612
RightToes  -1.33073e-015 0 -3.6325e-017
Spine  16.9222 0.130333 9.19552
Spine1  6.35524 3.90211 -10.6386
HEad  -31.3419 -17.4411 6.03462
LeftShoulder1  1.37273 -7.77703 -4.23397
LeftArm  -40.1213 -71.2912 -8.66933
LeftForeArm  -15.7382 -6.41871 -2.48015
LeftHand  -0.33208 12.0481 -4.4436
RightShoulder  0.799143 4.75941 1.40559
RightArm  -43.9774 76.5277 4.7862
RightForeArm  -32.1688 -5.18399 0.902207
RightHand  0.00113216 1.28509 -0.107207
LeftUpLeg  -12.6429 2.69599 0.168135
LeftLeg  4.2248 -11.0987 -0.0448544
LeftFoot  6.02682 -0.275594 1.56332
LeftToes  -1.03319e-009 7.52634e-011 -3.26162e-012
692
root  -63.0873 40.6605 1.0018 -141.666 -88.499 143.87
RightUpLeg  -10.2163 -7.52822 -4.54878
RightLeg  4.2673 8.67444 -0.0226764
RightFoot  2.92304 -0.477136 3.97055
RightToes  -1.33073e-015 0 -3.6325e-017
Spine  16.8438 -0.0439574 9.63723
Spine1  6.58534 3.856 -10.9478
HEad  -32.0099 -18.1067 6.47438
LeftShoulder1  1.33887 -8.08399 -3.5334
LeftArm  -40.8777 -71.2588 -8.83745
LeftForeArm  -14.8957 -6.36018 -1.89603
LeftHand  -0.344372 12.2484 -4.49519
RightShoulder  0.808933 4.58347 1.78549
RightArm  -46.0119 76.6313 2.71353
RightForeArm  -32.0533 -5.16565 0.774674
RightHand  -0.00734366 0.87807 -0.22641
LeftUpLeg  -12.4139 2.54307 0.148836
LeftLeg  4.05476 -11.3511 0.0704673
LeftFoot  5.88064 -0.162575 0.838173
LeftToes  -1.03319e-009 7.52634e-011 -3.26162e-012
693
root  -63.1928 40.69 0.905598 -142.199 -88.6509 144.323
RightUpLeg  -9.73832 -7.52909 -4.4001
RightLeg  3.8963 8.53508 0.0705312
RightFoot  2.98965 -0.456644 3.79317
RightToes  -1.33073e-015 0 -3.6325e-017
Spine  17.0792 -0.215018 10.0969
Spine1  6.22633 3.89136 -11.6019
HEad  -32.2453 -18.3923 6.95588
LeftShoulder1  1.25695 -7.9568 -2.87327
LeftArm  -40.7071 -71.3917 -9.39424
LeftForeArm  -14.8859 -5.91427 -1.70125
LeftHand  -0.374229 12.5263 -4.76982
RightShoulder  0.832985 4.48321 2.26888
RightArm  -46.1601 76.7302 2.99149
RightForeArm  -31.0006 -5.16427 0.560757
RightHand  0.0275692 1.29535 0.35617
LeftUpLeg  -12.0696 2.75568 0.367548
LeftLeg  3.86675 -11.7419 0.124415
LeftFoot  5.8423 -0.152399 0.773742
LeftToes  -1.03319e-009 7.52634e-011 -3.26162e-012
694
root  -63.3028 40.7172 0.82835 -138.251 -88.7496 140.266
RightUpLeg  -9.34334 -7.60888 -4.38168
RightLeg  3.76693 8.47073 0.152634
RightFoot  3.06917 -0.413616 3.43582
RightToes  -1.33073e-015 0 -3.6325e-017
Spine  17.0448 -0.11174 9.68662
Spine1  6.09724 3.71802 -10.7276
HEad  -32.3677 -18.9236 6.98106
LeftShoulder1  1.29644 -7.90213 -3.32267
LeftArm  -40.669 -71.3791 -9.36035
LeftForeArm  -14.4874 -5.55971 -1.6779
LeftHand  -0.367019 12.0582 -5.01377
RightShoulder  0.831474 4.67099 1.98821
RightArm  -45.2926 76.6071 3.57535
RightForeArm  -31.2525 -5.18043 0.702541
RightHand  0.03589 1.49707 0.464305
LeftUpLeg  -11.6865 2.83215 0.4264
LeftLeg  3.66026 -11.8537 0.196209
LeftFoot  5.83732 -0.174247 0.918351
LeftToes  -1.03319e-009 7.52634e-011 -3.26162e-012
695
root  -63.4003 40.7402 0.751294 -139.872 -88.6177 141.846
RightUpLeg  -9.10946 -7.57295 -4.33734
RightLeg  3.64957 8.50483 0.145898
RightFoot  3.04451 -0.408629 3.40106
RightToes  -1.33073e-015 0 -3.6325e-017
Spine  16.8655 0.0267093 9.63826
Spine1  6.10024 3.83248 -10.6661
HEad  -32.6148 -19.7814 7.35078
LeftShoulder1  1.33496 -8.04677 -3.54042
LeftArm  -39.9788 -70.9988 -9.95154
LeftForeArm  -14.1094 -5.94731 -1.79362
LeftHand  -0.362837 12.1154 -4.93238
RightShoulder  0.835699 4.67735 2.0675
RightArm  -44.2625 76.4911 4.54547
RightForeArm  -31.8342 -5.17637 0.792743
RightHand  -0.0124788 1.10058 -0.328254
LeftUpLeg  -11.3847 2.92062 0.495659
LeftLeg  3.51363 -11.8221 0.239748
LeftFoot  5.8325 -0.233548 1.30953
LeftToes  -1.03319e-009 7.52634e-011 -3.26162e-012
696
root  -63.5039 40.75 0.707857 -141.227 -88.5468 143.161
RightUpLeg  -8.95346 -7.58758 -4.3067
RightLeg  3.74543 8.58139 0.175335
RightFoot  2.91037 -0.388913 3.26861
RightToes  -1.33073e-015 0 -3.6325e-017
Spine  16.2422 0.00484048 9.56097
Spine1  6.73884 3.80091 -10.6271
HEad  -33.0084 -19.798 7.57478
LeftShoulder1  1.31845 -7.90247 -3.54143
LeftArm  -40.1525 -70.7496 -9.88687
LeftForeArm  -14.1727 -6.02685 -1.65999
LeftHand  -0.360059 12.117 -4.98839
RightShoulder  0.835938 4.50789 2.27038
RightArm  -43.8785 76.7093 4.52416
RightForeArm  -31.9946 -5.2098 1.01629
RightHand  -0.00280198 1.16458 -0.166404
LeftUpLeg  -11.098 2.99692 0.56659
LeftLeg  3.39365 -11.6527 0.264091
LeftFoot  5.60122 -0.143448 0.735013
LeftToes  -1.03319e-009 7.52634e-011 -3.26162e-012
697
root  -63.5939 40.7699 0.670827 -137.682 -88.4458 139.547
RightUpLeg  -8.86439 -7.69269 -4.40111
RightLeg  4.00394 8.71246 0.241914
RightFoot  2.82851 -0.354065 3.00307
RightToes  -1.33073e-015 0 -3.6325e-017
Spine  15.6246 0.0196905 9.38191
Spine1  7.29714 3.80189 -10.6336
HEad  -33.5293 -20.2505 7.78021
LeftShoulder1  1.31437 -7.81957 -3.59775
LeftArm  -40.1609 -70.513 -9.91415
LeftForeArm  -14.4559 -6.06259 -1.58717
LeftHand  -0.349682 11.8644 -4.91189
RightShoulder  0.836736 4.44041 2.38994
RightArm  -42.4219 76.2029 5.90955
RightForeArm  -31.6475 -5.20222 0.904767
RightHand  0.0168129 1.52228 0.145166
LeftUpLeg  -10.8036 3.01709 0.485032
LeftLeg  3.24786 -11.6469 0.274995
LeftFoot  5.62434 -0.218249 1.23305
LeftToes  -1.03319e-009 7.52634e-011 -3.26162e-012
698
root  -63.686 40.7682 0.636748 -128.535 -88.8152 130.289
RightUpLeg  -8.64442 -7.62818 -4.31068
RightLeg  4.25937 8.22272 0.189422
RightFoot  2.55772 -0.348871 3.00411
RightToes  -1.33073e-015 0 -3.6325e-017
Spine  15.4352 -0.125222 9.0152
Spine1  7.11963 3.39289 -9.95894
HEad  -33.4005 -20.7682 7.85586
LeftShoulder1  1.3391 -7.66111 -4.03223
LeftArm  -39.2781 -70.0022 -10.6504
LeftForeArm  -14.2512 -6.44222 -1.72874
LeftHand  -0.354296 11.9673 -4.88695
RightShoulder  0.857353 4.17575 3.10825
RightArm  -40.359 75.8429 7.44767
RightForeArm  -30.9963 -5.29622 0.992596
RightHand  0.00988294 1.51791 0.0286937
LeftUpLeg  -10.6284 3.02189 0.595647
LeftLeg  3.37651 -12.1109 0.249396
LeftFoot  5.38391 -0.136667 0.707813
LeftToes  -1.03319e-009 7.52634e-011 -3.26162e-012
699
root  -63.772 40.782 0.647881 -123.346 -88.8399 124.984
RightUpLeg  -8.35504 -7.68072 -4.40735
RightLeg  4.25816 8.17514 0.168289
RightFoot  2.49001 -0.33601 2.9093
RightToes  -1.33073e-015 0 -3.6325e-017
Spine  14.5724 -0.300892 8.89154
Spine1  7.88406 3.19326 -9.92405
HEad  -33.1668 -20.8817 7.80798
LeftShoulder1  1.31621 -7.43695 -4.07633
LeftArm  -38.1203 -69.0283 -11.8532
LeftForeArm  -13.8057 -7.21985 -1.76957
LeftHand  -0.313901 11.1086 -4.90383
RightShoulder  0.870501 3.99392 3.61069
RightArm  -38.3727 75.1123 9.29377
RightForeArm  -31.0749 -4.80681 0.949307
RightHand  0.0126943 1.85686 0.0353952
LeftUpLeg  -10.3936 2.97901 0.495042
LeftLeg  3.40841 -12.112 0.302
LeftFoot  5.28918 -0.168461 0.93301
LeftToes  -1.03319e-009 7.52634e-011 -3.26162e-012
